<svg xmlns="http://www.w3.org/2000/svg" xmlns:xlink="http://www.w3.org/1999/xlink" width="40px" height="40px" viewBox="0 0 40 40" version="1.1">
<g id="surface1">
<path style=" stroke:none;fill-rule:nonzero;fill:#403f3f;fill-opacity:1;" d="M 39.546875 0 L 0.453125 0 C 0.203125 0 0 0.210938 0 0.464844 L 0 3.953125 C 0 4.210938 0.203125 4.417969 0.453125 4.417969 L 39.546875 4.417969 C 39.796875 4.417969 40 4.210938 40 3.953125 L 40 0.464844 C 40 0.210938 39.796875 0 39.546875 0 Z M 20.355469 10.871094 C 20.269531 10.757812 20.136719 10.695312 20 10.695312 C 19.863281 10.695312 19.730469 10.757812 19.644531 10.871094 L 13.355469 19.109375 C 13.25 19.25 13.230469 19.441406 13.304688 19.601562 C 13.378906 19.757812 13.535156 19.859375 13.707031 19.859375 L 17.859375 19.859375 L 17.859375 39.535156 C 17.859375 39.789062 18.0625 40 18.308594 40 L 21.679688 40 C 21.925781 40 22.128906 39.789062 22.128906 39.535156 L 22.128906 19.867188 L 26.292969 19.867188 C 26.667969 19.867188 26.875 19.417969 26.644531 19.117188 Z M 20.355469 10.871094 "/>
</g>
</svg>